<?xml version="1.0" standalone="no"?><svg xmlns="http://www.w3.org/2000/svg" viewBox="0 0 1440 320"><path fill="#cad2c5" fill-opacity="1" d="M0,160L34.3,170.7C68.6,181,137,203,206,224C274.3,245,343,267,411,261.3C480,256,549,224,617,213.3C685.7,203,754,213,823,197.3C891.4,181,960,139,1029,144C1097.1,149,1166,203,1234,213.3C1302.9,224,1371,192,1406,176L1440,160L1440,320L1405.7,320C1371.4,320,1303,320,1234,320C1165.7,320,1097,320,1029,320C960,320,891,320,823,320C754.3,320,686,320,617,320C548.6,320,480,320,411,320C342.9,320,274,320,206,320C137.1,320,69,320,34,320L0,320Z"></path></svg>